<svg width="152" height="13" viewBox="0 0 152 13" fill="none" xmlns="http://www.w3.org/2000/svg">
<path d="M2.952 8.964C2.392 8.964 1.888 8.868 1.44 8.676C0.992001 8.476 0.640001 8.196 0.384001 7.836C0.128001 7.476 8.79169e-07 7.056 8.79169e-07 6.576H1.464C1.496 6.936 1.636 7.232 1.884 7.464C2.14 7.696 2.496 7.812 2.952 7.812C3.424 7.812 3.792 7.7 4.056 7.476C4.32 7.244 4.452 6.948 4.452 6.588C4.452 6.308 4.368 6.08 4.2 5.904C4.04 5.728 3.836 5.592 3.588 5.496C3.348 5.4 3.012 5.296 2.58 5.184C2.036 5.04 1.592 4.896 1.248 4.752C0.912001 4.6 0.624001 4.368 0.384001 4.056C0.144001 3.744 0.0240009 3.328 0.0240009 2.808C0.0240009 2.328 0.144001 1.908 0.384001 1.548C0.624001 1.188 0.960001 0.912005 1.392 0.720005C1.824 0.528004 2.324 0.432004 2.892 0.432004C3.7 0.432004 4.36 0.636004 4.872 1.044C5.392 1.444 5.68 1.996 5.736 2.7H4.224C4.2 2.396 4.056 2.136 3.792 1.92C3.528 1.704 3.18 1.596 2.748 1.596C2.356 1.596 2.036 1.696 1.788 1.896C1.54 2.096 1.416 2.384 1.416 2.76C1.416 3.016 1.492 3.228 1.644 3.396C1.804 3.556 2.004 3.684 2.244 3.78C2.484 3.876 2.812 3.98 3.228 4.092C3.78 4.244 4.228 4.396 4.572 4.548C4.924 4.7 5.22 4.936 5.46 5.256C5.708 5.568 5.832 5.988 5.832 6.516C5.832 6.94 5.716 7.34 5.484 7.716C5.26 8.092 4.928 8.396 4.488 8.628C4.056 8.852 3.544 8.964 2.952 8.964ZM10.2422 3.384V7.044C10.2422 7.292 10.2982 7.472 10.4102 7.584C10.5302 7.688 10.7302 7.74 11.0102 7.74H11.8502V8.88H10.7702C10.1542 8.88 9.68219 8.736 9.35419 8.448C9.02619 8.16 8.86219 7.692 8.86219 7.044V3.384H8.08219V2.268H8.86219V0.624005H10.2422V2.268H11.8502V3.384H10.2422ZM15.679 3.228C15.879 2.892 16.143 2.632 16.471 2.448C16.807 2.256 17.203 2.16 17.659 2.16V3.576H17.311C16.775 3.576 16.367 3.712 16.087 3.984C15.815 4.256 15.679 4.728 15.679 5.4V8.88H14.311V2.268H15.679V3.228ZM19.6605 5.544C19.6605 4.88 19.7965 4.292 20.0685 3.78C20.3485 3.268 20.7245 2.872 21.1965 2.592C21.6765 2.304 22.2045 2.16 22.7805 2.16C23.3005 2.16 23.7525 2.264 24.1365 2.472C24.5285 2.672 24.8405 2.924 25.0725 3.228V2.268H26.4525V8.88H25.0725V7.896C24.8405 8.208 24.5245 8.468 24.1245 8.676C23.7245 8.884 23.2685 8.988 22.7565 8.988C22.1885 8.988 21.6685 8.844 21.1965 8.556C20.7245 8.26 20.3485 7.852 20.0685 7.332C19.7965 6.804 19.6605 6.208 19.6605 5.544ZM25.0725 5.568C25.0725 5.112 24.9765 4.716 24.7845 4.38C24.6005 4.044 24.3565 3.788 24.0525 3.612C23.7485 3.436 23.4205 3.348 23.0685 3.348C22.7165 3.348 22.3885 3.436 22.0845 3.612C21.7805 3.78 21.5325 4.032 21.3405 4.368C21.1565 4.696 21.0645 5.088 21.0645 5.544C21.0645 6 21.1565 6.4 21.3405 6.744C21.5325 7.088 21.7805 7.352 22.0845 7.536C22.3965 7.712 22.7245 7.8 23.0685 7.8C23.4205 7.8 23.7485 7.712 24.0525 7.536C24.3565 7.36 24.6005 7.104 24.7845 6.768C24.9765 6.424 25.0725 6.024 25.0725 5.568ZM31.0453 3.384V7.044C31.0453 7.292 31.1013 7.472 31.2133 7.584C31.3333 7.688 31.5333 7.74 31.8133 7.74H32.6533V8.88H31.5733C30.9573 8.88 30.4853 8.736 30.1573 8.448C29.8293 8.16 29.6653 7.692 29.6653 7.044V3.384H28.8853V2.268H29.6653V0.624005H31.0453V2.268H32.6533V3.384H31.0453ZM41.1742 5.412C41.1742 5.66 41.1582 5.884 41.1262 6.084H36.0742C36.1142 6.612 36.3102 7.036 36.6622 7.356C37.0142 7.676 37.4462 7.836 37.9582 7.836C38.6942 7.836 39.2142 7.528 39.5182 6.912H40.9942C40.7942 7.52 40.4302 8.02 39.9022 8.412C39.3822 8.796 38.7342 8.988 37.9582 8.988C37.3262 8.988 36.7582 8.848 36.2542 8.568C35.7582 8.28 35.3662 7.88 35.0782 7.368C34.7982 6.848 34.6582 6.248 34.6582 5.568C34.6582 4.888 34.7942 4.292 35.0662 3.78C35.3462 3.26 35.7342 2.86 36.2302 2.58C36.7342 2.3 37.3102 2.16 37.9582 2.16C38.5822 2.16 39.1382 2.296 39.6262 2.568C40.1142 2.84 40.4942 3.224 40.7662 3.72C41.0382 4.208 41.1742 4.772 41.1742 5.412ZM39.7462 4.98C39.7382 4.476 39.5582 4.072 39.2062 3.768C38.8542 3.464 38.4182 3.312 37.8982 3.312C37.4262 3.312 37.0222 3.464 36.6862 3.768C36.3502 4.064 36.1502 4.468 36.0862 4.98H39.7462ZM46.3844 2.16C46.8964 2.16 47.3484 2.264 47.7404 2.472C48.1404 2.672 48.4524 2.924 48.6764 3.228V2.268H50.0564V8.988C50.0564 9.596 49.9284 10.136 49.6724 10.608C49.4164 11.088 49.0444 11.464 48.5564 11.736C48.0764 12.008 47.5004 12.144 46.8284 12.144C45.9324 12.144 45.1884 11.932 44.5964 11.508C44.0044 11.092 43.6684 10.524 43.5884 9.804H44.9444C45.0484 10.148 45.2684 10.424 45.6044 10.632C45.9484 10.848 46.3564 10.956 46.8284 10.956C47.3804 10.956 47.8244 10.788 48.1604 10.452C48.5044 10.116 48.6764 9.628 48.6764 8.988V7.884C48.4444 8.196 48.1284 8.46 47.7284 8.676C47.3364 8.884 46.8884 8.988 46.3844 8.988C45.8084 8.988 45.2804 8.844 44.8004 8.556C44.3284 8.26 43.9524 7.852 43.6724 7.332C43.4004 6.804 43.2644 6.208 43.2644 5.544C43.2644 4.88 43.4004 4.292 43.6724 3.78C43.9524 3.268 44.3284 2.872 44.8004 2.592C45.2804 2.304 45.8084 2.16 46.3844 2.16ZM48.6764 5.568C48.6764 5.112 48.5804 4.716 48.3884 4.38C48.2044 4.044 47.9604 3.788 47.6564 3.612C47.3524 3.436 47.0244 3.348 46.6724 3.348C46.3204 3.348 45.9924 3.436 45.6884 3.612C45.3844 3.78 45.1364 4.032 44.9444 4.368C44.7604 4.696 44.6684 5.088 44.6684 5.544C44.6684 6 44.7604 6.4 44.9444 6.744C45.1364 7.088 45.3844 7.352 45.6884 7.536C46.0004 7.712 46.3284 7.8 46.6724 7.8C47.0244 7.8 47.3524 7.712 47.6564 7.536C47.9604 7.36 48.2044 7.104 48.3884 6.768C48.5804 6.424 48.6764 6.024 48.6764 5.568ZM59.0052 2.268L54.9492 11.988H53.5332L54.8772 8.772L52.2732 2.268H53.7972L55.6572 7.308L57.5892 2.268H59.0052ZM68.4228 8.988C67.7988 8.988 67.2348 8.848 66.7308 8.568C66.2268 8.28 65.8308 7.88 65.5428 7.368C65.2548 6.848 65.1108 6.248 65.1108 5.568C65.1108 4.896 65.2588 4.3 65.5548 3.78C65.8508 3.26 66.2548 2.86 66.7668 2.58C67.2788 2.3 67.8508 2.16 68.4828 2.16C69.1148 2.16 69.6868 2.3 70.1988 2.58C70.7108 2.86 71.1148 3.26 71.4108 3.78C71.7068 4.3 71.8548 4.896 71.8548 5.568C71.8548 6.24 71.7028 6.836 71.3988 7.356C71.0948 7.876 70.6788 8.28 70.1508 8.568C69.6308 8.848 69.0548 8.988 68.4228 8.988ZM68.4228 7.8C68.7748 7.8 69.1028 7.716 69.4068 7.548C69.7188 7.38 69.9708 7.128 70.1628 6.792C70.3548 6.456 70.4508 6.048 70.4508 5.568C70.4508 5.088 70.3588 4.684 70.1748 4.356C69.9908 4.02 69.7468 3.768 69.4428 3.6C69.1388 3.432 68.8108 3.348 68.4588 3.348C68.1068 3.348 67.7788 3.432 67.4748 3.6C67.1788 3.768 66.9428 4.02 66.7668 4.356C66.5908 4.684 66.5028 5.088 66.5028 5.568C66.5028 6.28 66.6828 6.832 67.0428 7.224C67.4108 7.608 67.8708 7.8 68.4228 7.8ZM76.9631 7.656L78.8351 2.268H80.2871L77.7671 8.88H76.1351L73.6271 2.268H75.0911L76.9631 7.656ZM88.5812 5.412C88.5812 5.66 88.5652 5.884 88.5332 6.084H83.4812C83.5212 6.612 83.7172 7.036 84.0692 7.356C84.4212 7.676 84.8532 7.836 85.3652 7.836C86.1012 7.836 86.6212 7.528 86.9252 6.912H88.4012C88.2012 7.52 87.8372 8.02 87.3092 8.412C86.7892 8.796 86.1412 8.988 85.3652 8.988C84.7332 8.988 84.1652 8.848 83.6612 8.568C83.1652 8.28 82.7732 7.88 82.4852 7.368C82.2052 6.848 82.0652 6.248 82.0652 5.568C82.0652 4.888 82.2012 4.292 82.4732 3.78C82.7532 3.26 83.1412 2.86 83.6372 2.58C84.1412 2.3 84.7172 2.16 85.3652 2.16C85.9892 2.16 86.5452 2.296 87.0332 2.568C87.5212 2.84 87.9012 3.224 88.1732 3.72C88.4452 4.208 88.5812 4.772 88.5812 5.412ZM87.1532 4.98C87.1452 4.476 86.9652 4.072 86.6132 3.768C86.2612 3.464 85.8252 3.312 85.3052 3.312C84.8332 3.312 84.4292 3.464 84.0932 3.768C83.7572 4.064 83.5572 4.468 83.4932 4.98H87.1532ZM92.4954 3.228C92.6954 2.892 92.9594 2.632 93.2874 2.448C93.6234 2.256 94.0194 2.16 94.4754 2.16V3.576H94.1274C93.5914 3.576 93.1834 3.712 92.9034 3.984C92.6314 4.256 92.4954 4.728 92.4954 5.4V8.88H91.1274V2.268H92.4954V3.228ZM103.806 7.656L105.678 2.268H107.13L104.61 8.88H102.978L100.47 2.268H101.934L103.806 7.656ZM112.232 8.988C111.608 8.988 111.044 8.848 110.54 8.568C110.036 8.28 109.64 7.88 109.352 7.368C109.064 6.848 108.92 6.248 108.92 5.568C108.92 4.896 109.068 4.3 109.364 3.78C109.66 3.26 110.064 2.86 110.576 2.58C111.088 2.3 111.66 2.16 112.292 2.16C112.924 2.16 113.496 2.3 114.008 2.58C114.52 2.86 114.924 3.26 115.22 3.78C115.516 4.3 115.664 4.896 115.664 5.568C115.664 6.24 115.512 6.836 115.208 7.356C114.904 7.876 114.488 8.28 113.96 8.568C113.44 8.848 112.864 8.988 112.232 8.988ZM112.232 7.8C112.584 7.8 112.912 7.716 113.216 7.548C113.528 7.38 113.78 7.128 113.972 6.792C114.164 6.456 114.26 6.048 114.26 5.568C114.26 5.088 114.168 4.684 113.984 4.356C113.8 4.02 113.556 3.768 113.252 3.6C112.948 3.432 112.62 3.348 112.268 3.348C111.916 3.348 111.588 3.432 111.284 3.6C110.988 3.768 110.752 4.02 110.576 4.356C110.4 4.684 110.312 5.088 110.312 5.568C110.312 6.28 110.492 6.832 110.852 7.224C111.22 7.608 111.68 7.8 112.232 7.8ZM119.584 4.76837e-06V8.88H118.216V4.76837e-06H119.584ZM128.569 2.268V8.88H127.201V8.1C126.985 8.372 126.701 8.588 126.349 8.748C126.005 8.9 125.637 8.976 125.245 8.976C124.725 8.976 124.257 8.868 123.841 8.652C123.433 8.436 123.109 8.116 122.869 7.692C122.637 7.268 122.521 6.756 122.521 6.156V2.268H123.877V5.952C123.877 6.544 124.025 7 124.321 7.32C124.617 7.632 125.021 7.788 125.533 7.788C126.045 7.788 126.449 7.632 126.745 7.32C127.049 7 127.201 6.544 127.201 5.952V2.268H128.569ZM139.578 2.16C140.098 2.16 140.562 2.268 140.97 2.484C141.386 2.7 141.71 3.02 141.942 3.444C142.182 3.868 142.302 4.38 142.302 4.98V8.88H140.946V5.184C140.946 4.592 140.798 4.14 140.502 3.828C140.206 3.508 139.802 3.348 139.29 3.348C138.778 3.348 138.37 3.508 138.066 3.828C137.77 4.14 137.622 4.592 137.622 5.184V8.88H136.266V5.184C136.266 4.592 136.118 4.14 135.822 3.828C135.526 3.508 135.122 3.348 134.61 3.348C134.098 3.348 133.69 3.508 133.386 3.828C133.09 4.14 132.942 4.592 132.942 5.184V8.88H131.574V2.268H132.942V3.024C133.166 2.752 133.45 2.54 133.794 2.388C134.138 2.236 134.506 2.16 134.898 2.16C135.426 2.16 135.898 2.272 136.314 2.496C136.73 2.72 137.05 3.044 137.274 3.468C137.474 3.068 137.786 2.752 138.21 2.52C138.634 2.28 139.09 2.16 139.578 2.16ZM151.302 5.412C151.302 5.66 151.286 5.884 151.254 6.084H146.202C146.242 6.612 146.438 7.036 146.79 7.356C147.142 7.676 147.574 7.836 148.086 7.836C148.822 7.836 149.342 7.528 149.646 6.912H151.122C150.922 7.52 150.558 8.02 150.03 8.412C149.51 8.796 148.862 8.988 148.086 8.988C147.454 8.988 146.886 8.848 146.382 8.568C145.886 8.28 145.494 7.88 145.206 7.368C144.926 6.848 144.786 6.248 144.786 5.568C144.786 4.888 144.922 4.292 145.194 3.78C145.474 3.26 145.862 2.86 146.358 2.58C146.862 2.3 147.438 2.16 148.086 2.16C148.71 2.16 149.266 2.296 149.754 2.568C150.242 2.84 150.622 3.224 150.894 3.72C151.166 4.208 151.302 4.772 151.302 5.412ZM149.874 4.98C149.866 4.476 149.686 4.072 149.334 3.768C148.982 3.464 148.546 3.312 148.026 3.312C147.554 3.312 147.15 3.464 146.814 3.768C146.478 4.064 146.278 4.468 146.214 4.98H149.874Z" fill="black"/>
</svg>
